<svg xmlns="http://www.w3.org/2000/svg" width="800" height="800" viewBox="0 0 800 800" role="img" aria-label="Bloom Coffee placeholder">
  <rect width="800" height="800" fill="#FAF6F1"/>
  <circle cx="400" cy="400" r="250" fill="#F1E2D2"/>
  <path d="M264 330h250v122c0 72-58 130-130 130s-120-58-120-130V330Z" fill="#C89B3C" opacity=".22"/>
  <path d="M264 330h250v122c0 72-58 130-130 130s-120-58-120-130V330Z" fill="none" stroke="#C89B3C" stroke-width="34" stroke-linejoin="round"/>
  <path d="M514 372h38c43 0 78 35 78 78s-35 78-78 78h-38" fill="none" stroke="#C89B3C" stroke-width="34" stroke-linecap="round"/>
  <path d="M322 265c-20-36 17-55 0-90M400 265c-20-36 17-55 0-90M478 265c-20-36 17-55 0-90" fill="none" stroke="#3B2314" stroke-width="26" stroke-linecap="round"/>
  <path d="M230 626h340" fill="none" stroke="#3B2314" stroke-width="34" stroke-linecap="round"/>
  <text x="400" y="704" text-anchor="middle" font-family="Inter, system-ui, sans-serif" font-size="42" font-weight="700" fill="#3B2314">Bloom Coffee</text>
</svg>
