<svg width="800" height="600" viewBox="0 0 800 600" fill="none" xmlns="http://www.w3.org/2000/svg">
  <rect width="800" height="600" rx="56" fill="#F7EFE3"/>
  <circle cx="400" cy="300" r="228" fill="#E8D5BC"/>
  <ellipse cx="385" cy="342" rx="150" ry="94" fill="#F9F1E7"/>
  <ellipse cx="385" cy="314" rx="154" ry="82" fill="#FFF8EF"/>
  <ellipse cx="385" cy="310" rx="126" ry="56" fill="#7A3F22"/>
  <ellipse cx="385" cy="294" rx="106" ry="34" fill="#B76E34"/>
  <path d="M528 306h34c48 0 74 31 64 76-9 39-39 68-82 68h-42" stroke="#C89B3C" stroke-width="34" stroke-linecap="round"/>
  <path d="M322 306c28 28 66 35 122 6" stroke="#F6D58D" stroke-width="18" stroke-linecap="round"/>
  <path d="M351 287c28 14 58 13 91-5" stroke="#F9E6B8" stroke-width="11" stroke-linecap="round"/>
  <path d="M279 190c-28-38 36-50 7-88M381 181c-31-46 42-52 10-95M482 191c-28-41 42-50 12-88" stroke="#5A2E19" stroke-width="18" stroke-linecap="round"/>
  <rect x="250" y="440" width="294" height="38" rx="19" fill="#3B2314"/>
  <text x="400" y="525" text-anchor="middle" font-family="Inter, Arial, sans-serif" font-size="28" font-weight="800" fill="#3B2314">Bloom Coffee</text>
</svg>
