<svg width="800" height="600" viewBox="0 0 800 600" fill="none" xmlns="http://www.w3.org/2000/svg">
  <rect width="800" height="600" rx="56" fill="#FFF7ED"/>
  <circle cx="400" cy="300" r="226" fill="#F3D7AA"/>
  <ellipse cx="400" cy="420" rx="222" ry="58" fill="#FFFFFF"/>
  <ellipse cx="400" cy="413" rx="174" ry="36" fill="#F7E7D1"/>
  <path d="M250 367c19-120 113-204 232-210 61 47 89 110 82 188-93 43-198 50-314 22Z" fill="#D8942D"/>
  <path d="M274 340c80 20 171 14 270-22" stroke="#F9D178" stroke-width="22" stroke-linecap="round"/>
  <path d="M313 283c63 18 125 14 186-12" stroke="#F7C25B" stroke-width="18" stroke-linecap="round"/>
  <path d="M360 221c38 10 73 8 105-8" stroke="#FDE7B0" stroke-width="16" stroke-linecap="round"/>
  <circle cx="493" cy="177" r="18" fill="#FDE7B0"/>
  <circle cx="535" cy="253" r="13" fill="#FDE7B0"/>
  <circle cx="314" cy="350" r="15" fill="#FDE7B0"/>
  <text x="400" y="525" text-anchor="middle" font-family="Inter, Arial, sans-serif" font-size="28" font-weight="800" fill="#78350F">Bloom Bakery</text>
</svg>
