<svg width="800" height="600" viewBox="0 0 800 600" fill="none" xmlns="http://www.w3.org/2000/svg">
  <rect width="800" height="600" rx="56" fill="#FFF7E6"/>
  <circle cx="400" cy="300" r="226" fill="#FFE4B8"/>
  <path d="M284 170h232l-34 316c-4 38-36 67-75 67h-14c-39 0-71-29-75-67l-34-316Z" fill="#FFFDF7"/>
  <path d="M311 274h178l-24 200c-4 29-28 51-58 51h-14c-30 0-55-22-58-51l-24-200Z" fill="#F97316"/>
  <path d="M310 275c46-24 98 23 178-3" stroke="#FACC15" stroke-width="24" stroke-linecap="round"/>
  <ellipse cx="400" cy="170" rx="116" ry="34" fill="#FFFFFF"/>
  <ellipse cx="400" cy="170" rx="92" ry="20" fill="#FDBA74"/>
  <path d="M479 130l62-86" stroke="#3B2314" stroke-width="14" stroke-linecap="round"/>
  <path d="M546 69c32-8 64 11 72 43-31 9-64-9-72-43Z" fill="#86A85D"/>
  <circle cx="316" cy="236" r="18" fill="#FACC15"/>
  <circle cx="474" cy="222" r="14" fill="#FACC15"/>
  <circle cx="366" cy="332" r="13" fill="#FFE4B8"/>
  <text x="400" y="570" text-anchor="middle" font-family="Inter, Arial, sans-serif" font-size="28" font-weight="800" fill="#9A3412">Fresh Juice</text>
</svg>
