<svg width="1200" height="560" viewBox="0 0 1200 560" fill="none" xmlns="http://www.w3.org/2000/svg">
  <rect width="1200" height="560" rx="44" fill="#F8EFE0"/>
  <rect width="1200" height="560" rx="44" fill="url(#paint0_radial)"/>
  <circle cx="922" cy="290" r="310" fill="#E8D5BC"/>
  <circle cx="978" cy="268" r="220" fill="#FDF8EF"/>
  <ellipse cx="850" cy="398" rx="260" ry="54" fill="#D6B78D"/>
  <ellipse cx="850" cy="386" rx="214" ry="38" fill="#FFF8EF"/>
  <g filter="url(#shadow)">
    <path d="M704 148h182l-25 268c-4 40-38 71-78 71h-6c-41 0-75-31-79-71l-24-268h30Z" fill="#FDF8EF"/>
    <path d="M704 148h182l-25 268c-4 40-38 71-78 71h-6c-41 0-75-31-79-71l-24-268h30Z" fill="url(#coffeeGrad)"/>
    <ellipse cx="780" cy="148" rx="106" ry="34" fill="#F8E8D0"/>
    <ellipse cx="780" cy="145" rx="85" ry="22" fill="#9B5227"/>
    <ellipse cx="780" cy="136" rx="78" ry="16" fill="#D99645"/>
    <circle cx="736" cy="154" r="9" fill="#7A3F22" opacity=".8"/>
    <circle cx="807" cy="149" r="7" fill="#7A3F22" opacity=".7"/>
    <circle cx="848" cy="150" r="5" fill="#7A3F22" opacity=".7"/>
  </g>
  <g filter="url(#shadow)">
    <path d="M874 304c20-119 115-202 234-207 60 48 86 113 76 190-94 40-198 45-310 17Z" fill="#D8952D"/>
    <path d="M901 281c82 19 169 12 260-20" stroke="#FAD178" stroke-width="24" stroke-linecap="round"/>
    <path d="M939 229c56 14 111 10 166-13" stroke="#FDE7B0" stroke-width="18" stroke-linecap="round"/>
    <circle cx="1112" cy="123" r="17" fill="#FDE7B0"/>
    <circle cx="1154" cy="202" r="13" fill="#FDE7B0"/>
  </g>
  <g filter="url(#shadow)">
    <path d="M530 190h142l-22 234c-3 36-34 64-70 64h-3c-37 0-68-28-71-64l-22-234h46Z" fill="#FFFDF7"/>
    <path d="M509 278h145l-16 150c-3 26-25 46-51 46h-5c-27 0-49-20-52-46l-21-150Z" fill="#F97316"/>
    <ellipse cx="578" cy="190" rx="94" ry="27" fill="#FFF7E6"/>
    <ellipse cx="578" cy="188" rx="73" ry="15" fill="#FDBA74"/>
    <path d="M635 151l54-82" stroke="#3B2314" stroke-width="12" stroke-linecap="round"/>
    <path d="M694 91c30-8 58 9 67 38-30 8-59-8-67-38Z" fill="#86A85D"/>
  </g>
  <rect x="58" y="74" width="370" height="88" rx="24" fill="#3B2314" fill-opacity=".95"/>
  <text x="86" y="112" font-family="Inter, Arial, sans-serif" font-size="20" font-weight="900" letter-spacing="3" fill="#F8E8C2">BLOOM PROMO</text>
  <text x="86" y="145" font-family="Inter, Arial, sans-serif" font-size="22" font-weight="800" fill="#FFFFFF">Combo nước + bánh mỗi ngày</text>
  <rect x="58" y="184" width="284" height="54" rx="27" fill="#C89B3C"/>
  <text x="86" y="218" font-family="Inter, Arial, sans-serif" font-size="22" font-weight="900" fill="#3B2314">Gợi ý bán kèm</text>
  <text x="60" y="286" font-family="Inter, Arial, sans-serif" font-size="56" font-weight="900" fill="#3B2314">Thức uống mới</text>
  <text x="62" y="334" font-family="Inter, Arial, sans-serif" font-size="30" font-weight="800" fill="#8A5A28">Cà phê, trà trái cây và bánh nướng</text>
  <text x="64" y="382" font-family="Inter, Arial, sans-serif" font-size="24" font-weight="700" fill="#6B4B37">Không gian quản lý thực đơn nổi bật hơn với ảnh quảng cáo rõ ràng.</text>
  <defs>
    <filter id="shadow" x="430" y="30" width="820" height="520" filterUnits="userSpaceOnUse" color-interpolation-filters="sRGB">
      <feDropShadow dx="0" dy="22" stdDeviation="18" flood-color="#3B2314" flood-opacity=".18"/>
    </filter>
    <linearGradient id="coffeeGrad" x1="780" y1="164" x2="780" y2="491" gradientUnits="userSpaceOnUse">
      <stop offset="0" stop-color="#D99645"/>
      <stop offset=".34" stop-color="#7A3F22"/>
      <stop offset=".58" stop-color="#F6EFE7"/>
      <stop offset="1" stop-color="#FDF8EF"/>
    </linearGradient>
    <radialGradient id="paint0_radial" cx="0" cy="0" r="1" gradientUnits="userSpaceOnUse" gradientTransform="translate(1054 72) rotate(142) scale(837 623)">
      <stop stop-color="#F7D991"/>
      <stop offset=".46" stop-color="#F8EFE0"/>
      <stop offset="1" stop-color="#FFF8EF"/>
    </radialGradient>
  </defs>
</svg>
