<svg width="800" height="600" viewBox="0 0 800 600" fill="none" xmlns="http://www.w3.org/2000/svg">
  <rect width="800" height="600" rx="56" fill="#F5FAED"/>
  <circle cx="400" cy="300" r="226" fill="#DDECCF"/>
  <path d="M244 274h282l-32 146c-8 36-39 62-76 62h-68c-37 0-68-26-76-62l-30-146Z" fill="#FFFFFF"/>
  <ellipse cx="385" cy="274" rx="142" ry="47" fill="#FFFFFF"/>
  <ellipse cx="385" cy="270" rx="112" ry="28" fill="#86A85D"/>
  <path d="M531 300h37c45 0 70 31 58 72-11 37-43 61-83 61h-35" stroke="#86A85D" stroke-width="30" stroke-linecap="round"/>
  <path d="M332 253c36 20 77 20 116 0" stroke="#DDECCF" stroke-width="10" stroke-linecap="round"/>
  <path d="M300 179c-26-36 33-48 8-84M394 170c-28-42 38-48 10-90M488 180c-26-38 38-48 10-84" stroke="#166534" stroke-width="16" stroke-linecap="round"/>
  <path d="M290 454h210" stroke="#166534" stroke-width="32" stroke-linecap="round"/>
  <text x="400" y="525" text-anchor="middle" font-family="Inter, Arial, sans-serif" font-size="28" font-weight="800" fill="#166534">Bloom Tea</text>
</svg>
